<svg width="192" height="72" viewBox="0 0 192 72" fill="none" xmlns="http://www.w3.org/2000/svg">
<path d="M112.886 22.3856C112.886 37.7635 115.267 48.8376 98.251 48.8376C81.2346 48.8376 68.5956 60.387 68.5956 45.0091C68.5956 29.6311 62.0483 27.9457 69.751 24.4739C86.7673 24.4739 112.886 9.1508 112.886 22.3856Z" fill="#FF8A00"/>
<g filter="url(#filter0_d_59:95)">
<path d="M13.5482 28.642H4.26489C2.97991 28.642 2.11452 28.5492 1.66871 28.3635C1.2229 28.1779 1 27.8729 1 27.4486V2.34705C1 1.65752 1.28846 1.1669 1.86539 0.875172C2.44232 0.556927 3.43883 0.397805 4.85493 0.397805H13.7055C18.7405 0.397805 22.2152 1.40558 24.1296 3.42113C26.0439 5.41015 27.0011 9.04344 27.0011 14.321C27.0011 19.5985 26.0046 23.3114 24.0116 25.4595C22.0185 27.5812 18.5308 28.642 13.5482 28.642ZM13.2335 6.3251C12.6041 6.3251 12.1845 6.37814 11.9747 6.48422V22.5556L13.4695 22.7147C14.2562 22.7147 14.8463 22.0782 15.2396 20.8052C15.6592 19.5322 15.869 17.331 15.869 14.2016C15.869 11.0722 15.6592 8.97714 15.2396 7.91632C14.8201 6.85551 14.1513 6.3251 13.2335 6.3251Z" fill="#2FCD36"/>
<path d="M43.0677 29C40.8911 29 39.0161 28.8011 37.4427 28.4033C35.8954 27.979 34.4662 27.2364 33.155 26.1756C30.5064 24.0805 29.1821 20.0626 29.1821 14.1221C29.1821 11.6292 29.5361 9.4545 30.2442 7.59808C30.9784 5.74165 31.9881 4.26978 33.273 3.18244C35.7906 1.06081 39.0554 0 43.0677 0C45.1394 0 46.9358 0.185642 48.4567 0.556927C50.004 0.928212 51.4594 1.60448 52.823 2.58573C55.5766 4.60128 56.9533 8.44673 56.9533 14.1221C56.9533 19.214 55.7077 22.9666 53.2164 25.38C50.7251 27.7933 47.3422 29 43.0677 29ZM41.7696 22.1975C42.0843 22.5688 42.517 22.7545 43.0677 22.7545C43.6184 22.7545 44.0511 22.5688 44.3658 22.1975C44.6805 21.7997 44.9427 20.9776 45.1525 19.7311C45.3623 18.4582 45.4672 16.6946 45.4672 14.4403C45.4672 12.1861 45.3623 10.449 45.1525 9.22908C44.9427 8.00914 44.6805 7.21353 44.3658 6.84225C44.0511 6.47096 43.6184 6.28532 43.0677 6.28532C42.517 6.28532 42.0843 6.47096 41.7696 6.84225C41.4549 7.21353 41.1927 8.00914 40.9829 9.22908C40.7731 10.449 40.6682 12.1861 40.6682 14.4403C40.6682 16.6946 40.7731 18.4582 40.9829 19.7311C41.1927 20.9776 41.4549 21.7997 41.7696 22.1975Z" fill="#2FCD36"/>
<path d="M79.212 28.3635C78.163 28.6022 77.0878 28.7613 75.9864 28.8409C74.9112 28.947 73.8492 29 72.8002 29C71.7775 29 70.9776 28.9735 70.4007 28.9204C69.85 28.8674 69.1157 28.7348 68.1979 28.5226C67.2801 28.3105 66.4409 28.0187 65.6804 27.6475C64.9199 27.2762 64.1069 26.7325 63.2416 26.0165C62.4024 25.3004 61.6943 24.4518 61.1174 23.4705C59.78 21.1898 59.1113 18.246 59.1113 14.6392C59.1113 12.2259 59.4784 10.091 60.2127 8.23457C60.9732 6.37814 61.8779 4.94604 62.9269 3.93827C64.0021 2.9305 65.2215 2.12163 66.5851 1.51166C68.7879 0.503886 71.0039 0 73.2329 0C76.4322 0 78.7268 0.265203 80.1167 0.79561C80.7461 1.03429 81.3099 1.40558 81.8082 1.90946C82.3064 2.41335 82.5555 3.14266 82.5555 4.09739C82.5555 5.05213 82.3195 6.2588 81.8475 7.71742C81.4017 9.17604 80.7461 9.90535 79.8807 9.90535C79.6185 9.90535 78.6482 9.69319 76.9698 9.26886C75.2915 8.84454 74.1507 8.63237 73.5476 8.63237C72.6298 8.63237 71.843 9.14952 71.1874 10.1838C70.5581 11.2181 70.2434 12.69 70.2434 14.5995C70.2434 16.5089 70.5187 17.9941 71.0694 19.0549C71.6464 20.1157 72.3937 20.6461 73.3116 20.6461C73.9672 20.6461 75.1473 20.3809 76.8518 19.8505C78.5826 19.2936 79.5922 19.0151 79.8807 19.0151C80.6936 19.0151 81.323 19.7709 81.7688 21.2826C82.2409 22.7942 82.4769 24.0142 82.4769 24.9424C82.4769 25.8706 82.1884 26.6132 81.6115 27.1701C81.0608 27.7005 80.2609 28.0983 79.212 28.3635Z" fill="#2FCD36"/>
<path d="M102.037 27.6872C102.037 27.979 101.224 28.2177 99.5979 28.4033C97.9982 28.5624 96.3854 28.642 94.7595 28.642C93.1599 28.642 92.1371 28.5757 91.6913 28.4431C91.2717 28.284 91.062 28.032 91.062 27.6872V10.5816H85.5942C85.3058 10.5816 85.0567 10.2103 84.8469 9.46776C84.6371 8.72519 84.5322 7.6246 84.5322 6.16598C84.5322 4.68084 84.6895 3.35482 85.0042 2.18793C85.3189 0.994512 85.7385 0.397805 86.263 0.397805H107.544C107.937 0.397805 108.199 0.769089 108.33 1.51166C108.488 2.25423 108.566 3.3283 108.566 4.73388C108.566 6.13946 108.422 7.46548 108.134 8.71193C107.845 9.95839 107.452 10.5816 106.954 10.5816H102.037V27.6872Z" fill="#2FCD36"/>
<path d="M124.237 29C122.06 29 120.185 28.8011 118.612 28.4033C117.064 27.979 115.635 27.2364 114.324 26.1756C111.675 24.0805 110.351 20.0626 110.351 14.1221C110.351 11.6292 110.705 9.4545 111.413 7.59808C112.147 5.74165 113.157 4.26978 114.442 3.18244C116.96 1.06081 120.224 0 124.237 0C126.308 0 128.105 0.185642 129.626 0.556927C131.173 0.928212 132.628 1.60448 133.992 2.58573C136.746 4.60128 138.122 8.44673 138.122 14.1221C138.122 19.214 136.877 22.9666 134.385 25.38C131.894 27.7933 128.511 29 124.237 29ZM122.939 22.1975C123.253 22.5688 123.686 22.7545 124.237 22.7545C124.787 22.7545 125.22 22.5688 125.535 22.1975C125.849 21.7997 126.112 20.9776 126.321 19.7311C126.531 18.4582 126.636 16.6946 126.636 14.4403C126.636 12.1861 126.531 10.449 126.321 9.22908C126.112 8.00914 125.849 7.21353 125.535 6.84225C125.22 6.47096 124.787 6.28532 124.237 6.28532C123.686 6.28532 123.253 6.47096 122.939 6.84225C122.624 7.21353 122.362 8.00914 122.152 9.22908C121.942 10.449 121.837 12.1861 121.837 14.4403C121.837 16.6946 121.942 18.4582 122.152 19.7311C122.362 20.9776 122.624 21.7997 122.939 22.1975Z" fill="#2FCD36"/>
<path d="M151.688 27.4883C151.688 27.8331 150.888 28.1116 149.288 28.3237C147.689 28.5359 146.076 28.642 144.45 28.642C142.85 28.642 141.814 28.5492 141.342 28.3635C140.896 28.1779 140.674 27.8861 140.674 27.4883V1.90946C140.674 1.21994 141.526 0.729309 143.23 0.437585C144.961 0.145861 147.138 0 149.76 0C152.383 0 154.074 0.0132598 154.835 0.0397798C155.621 0.0397798 156.539 0.0795606 157.588 0.159122C158.637 0.238682 159.463 0.371284 160.066 0.556927C160.696 0.742569 161.377 0.981252 162.112 1.27298C162.872 1.5647 163.462 1.94925 163.882 2.42661C164.301 2.87746 164.708 3.42112 165.101 4.05761C165.809 5.19799 166.163 6.82899 166.163 8.95062C166.163 11.0457 165.809 12.8226 165.101 14.2812C164.419 15.7133 163.502 16.8006 162.348 17.5432C165.363 22.3434 166.871 25.3932 166.871 26.6927C166.871 27.9922 164.288 28.642 159.122 28.642C157.627 28.642 156.592 28.5757 156.015 28.4431C155.438 28.3105 155.071 28.0187 154.913 27.5679L152.356 19.3731L151.688 19.3333V27.4883ZM151.688 13.2071H152.71C154.231 13.2071 154.992 12.0137 154.992 9.62689C154.992 8.40695 154.782 7.54504 154.363 7.04115C153.969 6.53727 153.51 6.28532 152.986 6.28532H151.688V13.2071Z" fill="#2FCD36"/>
<path d="M188.853 26.9712C188.066 27.5546 186.965 28.0453 185.549 28.4431C184.159 28.8144 182.35 29 180.121 29C177.918 29 175.82 28.8144 173.827 28.4431C171.834 28.0718 170.405 27.6607 169.539 27.2099C168.674 26.759 168.241 26.3214 168.241 25.8971C168.241 24.412 168.451 22.8738 168.87 21.2826C169.29 19.6648 169.788 18.856 170.365 18.856C170.47 18.856 171.558 19.214 173.63 19.93C175.702 20.6461 177.262 21.0041 178.311 21.0041C179.36 21.0041 180.042 20.898 180.357 20.6859C180.671 20.4472 180.829 20.1157 180.829 19.6914C180.829 19.267 180.54 18.8957 179.963 18.5775C179.386 18.2327 178.665 17.941 177.8 17.7023C176.934 17.4371 175.99 17.0658 174.968 16.5885C173.971 16.1111 173.04 15.5807 172.175 14.9973C171.309 14.4138 170.588 13.5917 170.011 12.5309C169.434 11.4435 169.146 10.2103 169.146 8.83127C169.146 2.94376 172.62 0 179.57 0C182.166 0 184.408 0.172382 186.296 0.517147C188.184 0.83539 189.509 1.20668 190.269 1.631C191.056 2.02881 191.449 2.42661 191.449 2.82442C191.449 4.20347 191.122 5.68862 190.466 7.27984C189.837 8.87106 189.22 9.66667 188.617 9.66667C188.512 9.66667 188.171 9.54733 187.594 9.30864C185.864 8.53955 184.421 8.15501 183.267 8.15501C182.14 8.15501 181.366 8.26109 180.947 8.47325C180.553 8.68541 180.357 9.01692 180.357 9.46776C180.357 9.89209 180.645 10.2501 181.222 10.5418C181.799 10.807 182.507 11.059 183.346 11.2977C184.211 11.5098 185.142 11.8546 186.139 12.332C187.162 12.7828 188.106 13.3265 188.971 13.963C189.837 14.5729 190.558 15.4481 191.135 16.5885C191.712 17.7289 192 19.0549 192 20.5665C192 22.1578 191.594 23.6031 190.781 24.9026C190.282 25.6982 189.64 26.3877 188.853 26.9712Z" fill="#2FCD36"/>
</g>
<g filter="url(#filter1_i_59:95)">
<path d="M34.7495 47.7761C34.6262 48.8469 34.4597 49.93 34.25 51.0252C33.8924 50.794 32.918 50.2586 31.327 49.4189C29.3414 50.7575 27.7134 53.6477 26.443 58.0894C25.444 61.6184 24.7164 65.8411 24.2601 70.7574L24.2046 71.3963C24.1799 71.7249 24.0442 71.8648 23.7976 71.8162C20.8992 71.2686 18.0317 70.9947 15.1951 70.9947H14.1406C10.2803 64.8493 7.66561 59.5679 6.29661 55.1506C6.03761 55.3574 5.43328 55.5826 4.48362 55.8259C3.53395 56.0693 2.78162 56.191 2.22662 56.191C2.05396 56.191 1.97996 56.1058 2.00462 55.9355C2.12796 55.1566 2.26979 54.0067 2.43012 52.4855C2.43012 52.3395 2.50412 52.2665 2.65212 52.2665C2.68912 52.2665 2.88646 52.2726 3.24412 52.2847C3.61412 52.2969 3.89779 52.303 4.09512 52.303C6.85778 52.303 10.9463 51.6033 16.3606 50.2038C16.3359 50.581 16.3236 51.1165 16.3236 51.8101C16.3236 57.7852 17.8406 62.2999 20.8746 65.3544C23.4522 56.5196 24.741 50.9461 24.741 48.634C24.741 48.2202 24.4882 47.9221 23.9826 47.7396C23.3536 47.5205 22.1634 47.411 20.4121 47.411C20.5724 46.8756 20.7636 46.1272 20.9856 45.1658C21.0102 45.0319 21.0842 44.965 21.2076 44.965C25.6722 45.8655 30.032 46.6504 34.287 47.3197C34.62 47.3806 34.7742 47.5327 34.7495 47.7761Z" fill="#FFF501"/>
<path d="M49.2535 44.1071C49.2535 44.9224 48.3038 45.616 46.4045 46.188C44.7271 46.6991 42.9512 46.9547 41.0765 46.9547C39.3252 46.9547 37.8883 46.6322 36.766 45.9872C35.471 45.2327 34.8235 44.1497 34.8235 42.7381C34.8235 40.9127 36.9572 40 41.2245 40C43.5925 40 45.5473 40.432 47.089 41.296C48.532 42.0992 49.2535 43.0362 49.2535 44.1071ZM49.4015 69.9908C46.8978 69.5405 44.2338 69.3154 41.4095 69.3154C38.6838 69.3154 34.8728 69.7596 29.9765 70.6479C30.1615 69.7474 30.3712 68.7009 30.6055 67.5083C32.5789 67.2771 33.8615 66.8147 34.4535 66.121C35.0578 65.4152 35.5635 64.1131 35.9705 62.2147C36.3652 60.4137 36.5625 58.6553 36.5625 56.9394C36.5625 55.114 35.7793 54.2014 34.213 54.2014C33.7197 54.2014 33.251 54.2561 32.807 54.3656C32.1287 52.8932 31.7895 51.8406 31.7895 51.2078C36.8462 51.1713 41.5698 50.3498 45.9605 48.7435C46.0098 48.78 46.0345 48.8835 46.0345 49.0538C46.0345 49.3215 45.9728 49.8083 45.8495 50.5141C45.0602 54.822 44.6655 58.4058 44.6655 61.2655C44.6655 63.2491 44.906 64.5451 45.387 65.1536C45.683 65.5308 46.1023 65.7194 46.645 65.7194C47.2616 65.7194 47.9646 65.5551 48.754 65.2266C48.976 65.1414 49.1055 65.2448 49.1425 65.5369C49.2781 66.5956 49.3645 68.0802 49.4015 69.9908Z" fill="#FFF501"/>
<path d="M78.7609 56.7204C78.7609 58.424 77.1945 59.6775 74.0619 60.4806C72.2489 60.9552 70.6086 61.1925 69.1409 61.1925C66.4646 61.1925 65.1264 60.4745 65.1264 59.0386C65.1264 57.4079 65.8171 56.0267 67.1984 54.895C68.2961 53.9945 69.6897 53.3434 71.3794 52.9419C71.5274 52.9054 71.6014 52.8019 71.6014 52.6315C71.6014 52.3517 71.2931 52.0535 70.6764 51.7371C69.9734 51.3842 69.1594 51.2078 68.2344 51.2078C66.5571 51.2078 65.0832 51.6702 63.8129 52.595C62.2466 53.7389 61.4634 55.3574 61.4634 57.4505C61.4634 59.1785 62.0184 61.8131 63.1284 65.3544C63.2271 65.6586 63.8684 65.9324 65.0524 66.1758C66.3597 66.4313 68.0124 66.626 70.0104 66.7599C69.8377 67.5265 69.6281 68.4514 69.3814 69.5345C68.9004 69.5101 68.1912 69.4979 67.2539 69.4979C61.5806 69.4979 55.9751 70.1977 50.4375 71.5971C50.0675 71.0495 49.7591 70.1855 49.5125 69.0051C49.4878 68.8712 49.5556 68.7739 49.716 68.713C51.196 68.1046 51.9483 67.8004 51.973 67.8004C52.6266 67.4596 52.972 67.052 53.009 66.5774C53.1693 65.2996 53.3296 64.0279 53.49 62.7623C53.7736 60.3042 53.9155 58.3997 53.9155 57.0489C53.9155 55.5886 53.749 54.7429 53.416 54.5117C53.009 54.2074 52.417 54.0553 51.64 54.0553C51.3563 54.0553 50.8506 54.1162 50.123 54.2379C49.9256 54.2744 49.827 54.25 49.827 54.1649C49.827 53.9823 49.7468 53.3252 49.5865 52.1935C49.4385 51.0496 49.3645 50.4107 49.3645 50.2768C49.3645 50.1065 49.4693 50.0456 49.679 50.0943C50.7273 50.3742 51.788 50.5141 52.861 50.5141C55.4756 50.5141 58.2013 49.5771 61.0379 47.7031C60.8776 48.6644 60.6741 49.9117 60.4274 51.4451C62.4008 49.6197 65.1449 48.707 68.6599 48.707C73.4329 48.707 76.5779 50.4776 78.0949 54.0188C78.5389 55.0897 78.7609 55.9902 78.7609 56.7204Z" fill="#FFF501"/>
<path d="M109.6 49.5284C109.6 50.648 109.508 51.2747 109.323 51.4085C108.311 51.2017 107.43 51.0982 106.677 51.0982C105.678 51.0982 105.136 51.3234 105.049 51.7736C104.79 53.0027 104.537 54.8159 104.291 57.2132C104.007 59.8661 103.865 62.0322 103.865 63.7115V64.4964C104.556 64.1679 105.327 64.0036 106.178 64.0036C106.93 64.0036 107.627 64.1131 108.268 64.3322L108.527 67.3258H108.12C106.579 67.3258 104.488 67.8673 101.849 68.9503C99.8508 69.7657 97.933 70.7088 96.0953 71.7797C95.824 71.9379 95.676 72.0109 95.6513 71.9987C95.5773 71.9744 95.5896 71.7614 95.6883 71.3598C96.1693 69.4371 96.4961 67.5448 96.6688 65.6829C94.9545 67.6422 93.0737 69.0964 91.0263 70.0456C89.4353 70.7757 87.9183 71.1408 86.4753 71.1408C84.6993 71.1408 83.244 70.727 82.1094 69.8995C80.8514 68.9747 80.2224 67.6787 80.2224 66.0115C80.2224 63.3221 81.1597 60.6267 83.0344 57.9251C84.3417 56.0511 85.9327 54.3778 87.8073 52.9054C87.6347 52.9054 87.3633 52.8993 86.9933 52.8871C86.6233 52.8749 86.352 52.8688 86.1793 52.8688C84.021 52.8688 81.8072 52.954 79.5379 53.1244C79.6859 52.8445 80.1792 51.8588 81.0179 50.1673C84.0518 50.3985 86.7282 50.5141 89.0468 50.5141C90.1198 50.5141 92.3953 50.4594 95.8733 50.3498C94.2947 52.2726 92.9503 54.4326 91.8403 56.8299C90.6687 59.3611 90.0828 61.4663 90.0828 63.1457C90.0828 64.1192 90.311 64.9041 90.7673 65.5004C91.1867 66.048 91.7047 66.3218 92.3213 66.3218C93.4807 66.3218 94.7633 64.6607 96.1693 61.3385C97.6493 57.8217 98.562 53.9215 98.9073 49.6379C98.9936 48.5792 99.043 47.7943 99.0553 47.2832C100.165 47.5509 103.68 48.2993 109.6 49.5284Z" fill="#FFF501"/>
<path d="M135.389 62.9266C135.389 63.4256 135.352 63.9184 135.278 64.4052C134.921 66.7295 133.175 68.5366 130.043 69.8265C127.144 71.0313 123.488 71.6336 119.072 71.6336C116.051 71.6336 113.584 71.2199 111.672 70.3924C110.032 69.6866 109.033 68.8165 108.675 67.7821C108.429 67.0398 108.305 66.4131 108.305 65.902C108.305 64.1374 110.007 63.0301 113.411 62.5798C114.558 62.4338 115.619 62.3608 116.593 62.3608C118.369 62.3608 119.775 62.5798 120.811 63.0179C121.847 63.456 122.365 64.0583 122.365 64.825C122.365 65.6282 121.989 66.3401 121.237 66.9607C120.299 67.7395 118.881 68.2628 116.982 68.5305C115.847 68.6887 115.28 68.926 115.28 69.2424C115.28 69.5831 116.279 69.7535 118.277 69.7535C119.054 69.7535 119.744 69.717 120.349 69.644C122.088 69.4371 123.364 69.139 124.178 68.7495C125.412 68.1776 126.004 67.3197 125.954 66.1758C125.794 62.4642 123.938 60.6084 120.386 60.6084C120.028 60.6084 119.3 60.651 118.203 60.7362C117.117 60.8214 116.347 60.864 115.89 60.864C112.166 60.864 110.303 59.6045 110.303 57.0854C110.303 56.4892 110.359 55.9537 110.47 55.4791C110.877 53.5442 111.993 51.9988 113.818 50.8427C115.915 49.5163 118.752 48.853 122.328 48.853C125.794 48.853 128.353 49.1633 130.006 49.784C131.449 50.3194 132.411 51.1834 132.892 52.376C133.2 53.1183 133.354 53.7024 133.354 54.1283C133.354 55.5035 131.874 56.2884 128.914 56.4831C128.359 56.5074 127.755 56.5196 127.101 56.5196C123.179 56.5196 121.218 55.8503 121.218 54.5117C121.218 53.3434 121.903 52.4673 123.272 51.8831C123.444 51.8101 124.468 51.5485 126.343 51.0982C126.565 51.0496 126.676 50.9644 126.676 50.8427C126.676 50.4168 125.72 50.2038 123.808 50.2038C120.17 50.2038 118.351 51.2747 118.351 53.4165C118.351 53.9154 118.449 54.4508 118.647 55.0228C119.103 56.3127 119.818 57.2132 120.793 57.7243C121.594 58.1502 122.698 58.3632 124.104 58.3632C124.585 58.3632 125.362 58.3328 126.435 58.2719C127.508 58.1989 128.31 58.1624 128.84 58.1624C130.912 58.1624 132.466 58.4727 133.502 59.0933C134.76 59.8357 135.389 61.1134 135.389 62.9266Z" fill="#FFF501"/>
<path d="M163.731 58.2537C163.731 58.8743 163.706 59.6045 163.657 60.4441C163.657 60.5901 163.595 60.6449 163.472 60.6084C161.375 60.146 157.941 59.5314 153.168 58.7648C148.925 58.0955 146.705 57.7608 146.508 57.7608C146.224 57.7608 146.082 58.9047 146.082 61.1925C146.082 64.0766 146.723 66.2305 148.006 67.6543C148.98 68.7374 150.232 69.3154 151.762 69.3884C152.625 69.4249 153.42 69.2972 154.148 69.0051C154.432 68.8956 154.574 68.7861 154.574 68.6765C154.574 68.6035 154.5 68.5427 154.352 68.494C152.736 68.2019 151.416 67.6117 150.393 66.7234C149.369 65.8229 148.857 64.752 148.857 63.5107C148.857 62.7319 149.301 62.1052 150.189 61.6306C151.089 61.1438 152.31 60.9005 153.852 60.9005C154.913 60.9005 156.035 61.01 157.219 61.229C160.401 61.8375 161.992 63.097 161.992 65.0075C161.992 65.543 161.844 66.0906 161.548 66.6504C160.722 68.1837 159.698 69.2789 158.477 69.936C156.701 70.8852 154 71.3598 150.374 71.3598C146.205 71.3598 142.875 69.8387 140.384 66.7964C138.251 64.2044 137.184 61.2777 137.184 58.0164C137.184 51.9927 142.173 48.9808 152.15 48.9808C157.934 48.9808 161.493 50.4107 162.825 53.2704C163.429 54.5725 163.731 56.2336 163.731 58.2537ZM156.646 54.0553C156.646 53.3739 156.195 52.8202 155.295 52.3942C154.395 51.9562 153.205 51.7371 151.725 51.7371C149.998 51.7371 148.499 51.8953 147.229 52.2117C145.737 52.5768 144.991 53.0696 144.991 53.6903C144.991 55.2601 147.537 56.045 152.631 56.045C155.307 56.045 156.646 55.3818 156.646 54.0553Z" fill="#FFF501"/>
<path d="M191 62.9266C191 63.4256 190.963 63.9184 190.889 64.4052C190.531 66.7295 188.786 68.5366 185.654 69.8265C182.755 71.0313 179.098 71.6336 174.683 71.6336C171.661 71.6336 169.195 71.2199 167.283 70.3924C165.643 69.6866 164.644 68.8165 164.286 67.7821C164.039 67.0398 163.916 66.4131 163.916 65.902C163.916 64.1374 165.618 63.0301 169.022 62.5798C170.169 62.4338 171.23 62.3608 172.204 62.3608C173.98 62.3608 175.386 62.5798 176.422 63.0179C177.458 63.456 177.976 64.0583 177.976 64.825C177.976 65.6282 177.6 66.3401 176.848 66.9607C175.91 67.7395 174.492 68.2628 172.593 68.5305C171.458 68.6887 170.891 68.926 170.891 69.2424C170.891 69.5831 171.89 69.7535 173.888 69.7535C174.665 69.7535 175.355 69.717 175.96 69.644C177.699 69.4371 178.975 69.139 179.789 68.7495C181.022 68.1776 181.614 67.3197 181.565 66.1758C181.405 62.4642 179.549 60.6084 175.997 60.6084C175.639 60.6084 174.911 60.651 173.814 60.7362C172.728 60.8214 171.957 60.864 171.501 60.864C167.776 60.864 165.914 59.6045 165.914 57.0854C165.914 56.4892 165.97 55.9537 166.081 55.4791C166.488 53.5442 167.604 51.9988 169.429 50.8427C171.526 49.5163 174.362 48.853 177.939 48.853C181.405 48.853 183.964 49.1633 185.617 49.784C187.06 50.3194 188.022 51.1834 188.503 52.376C188.811 53.1183 188.965 53.7024 188.965 54.1283C188.965 55.5035 187.485 56.2884 184.525 56.4831C183.97 56.5074 183.366 56.5196 182.712 56.5196C178.79 56.5196 176.829 55.8503 176.829 54.5117C176.829 53.3434 177.514 52.4673 178.883 51.8831C179.055 51.8101 180.079 51.5485 181.954 51.0982C182.176 51.0496 182.287 50.9644 182.287 50.8427C182.287 50.4168 181.331 50.2038 179.419 50.2038C175.781 50.2038 173.962 51.2747 173.962 53.4165C173.962 53.9154 174.06 54.4508 174.258 55.0228C174.714 56.3127 175.429 57.2132 176.404 57.7243C177.205 58.1502 178.309 58.3632 179.715 58.3632C180.196 58.3632 180.973 58.3328 182.046 58.2719C183.119 58.1989 183.921 58.1624 184.451 58.1624C186.523 58.1624 188.077 58.4727 189.113 59.0933C190.371 59.8357 191 61.1134 191 62.9266Z" fill="#FFF501"/>
</g>
<path d="M79.0598 44.9076C89.7861 49.0792 90.1692 38.6369 94 48.7644C83.2737 48.0893 69 60.9356 69 44.9076C69 41 71.0151 41 71.0151 41C71.0151 41 73.1677 42.6161 79.0598 44.9076Z" fill="#FF8A00"/>
<path d="M112.816 22.1697C113.949 37.1925 109.472 34.8705 109.472 34.8705C108.707 33.8613 76.2892 37.276 84.2603 29.3479C83.1123 26.993 87.2784 23.0962 86.8957 21.4142C99.9059 17.7136 112.151 13.3404 112.816 22.1697Z" fill="#FF8A00"/>
<path d="M85.6149 43.0168C85.6706 42.2337 85.7102 41.4626 85.7339 40.7035C85.7755 39.9413 85.7987 39.1362 85.8034 38.2883C85.8223 37.4195 85.835 36.4782 85.8414 35.4643C85.862 34.4295 85.89 33.2553 85.9253 31.9417C85.926 31.6838 85.9724 31.5099 86.0646 31.4203C86.153 31.3128 86.3761 31.228 86.7338 31.1657C87.0021 31.1191 87.3617 31.0657 87.8127 31.0057C88.2636 30.9456 88.7151 30.9315 89.1671 30.9634C89.619 30.9953 90.0198 31.0913 90.3693 31.2515C90.7366 31.4085 90.9601 31.6735 91.0395 32.0464C91.1039 32.3482 91.1006 32.8552 91.0298 33.5673C90.959 34.2793 90.8464 35.1 90.692 36.0291C90.5339 36.9406 90.3404 37.9041 90.1118 38.9199C89.901 39.9325 89.6878 40.8904 89.4721 41.7934C89.2565 42.6964 89.0469 43.497 88.8433 44.1954C88.636 44.876 88.4783 45.3546 88.3703 45.6311C88.2688 45.8514 88.1682 45.9886 88.0685 46.0427C87.9687 46.0969 87.7936 46.1458 87.5432 46.1894L85.1554 46.6048C84.7798 46.6701 84.4535 46.6624 84.1766 46.5817C83.9138 46.4801 83.6792 46.3367 83.4728 46.1517C83.2664 45.9666 83.0812 45.7502 82.9171 45.5026C82.7492 45.2371 82.5884 44.9613 82.4346 44.675C81.5374 42.9896 80.7577 41.5508 80.0955 40.3585C79.4474 39.1454 78.8983 38.1361 78.4484 37.3305C77.9984 36.5248 77.6399 35.8874 77.373 35.4183C77.1022 34.9313 76.8938 34.5625 76.7476 34.3117C76.5976 34.0432 76.4952 33.8676 76.4405 33.7851C76.3821 33.6847 76.349 33.6168 76.3415 33.5813C76.3329 33.4539 76.3939 33.3052 76.5246 33.1351C76.6553 32.9651 76.8459 32.8583 77.0963 32.8147C77.919 32.6716 78.6242 32.5857 79.2117 32.5572C79.8133 32.5078 80.3189 32.5303 80.7286 32.6248C81.1562 32.7161 81.4986 32.8867 81.7559 33.1366C82.0311 33.3833 82.2626 33.7298 82.4505 34.1759C82.4949 34.2971 82.5836 34.5394 82.7168 34.903C82.8499 35.2665 83.0001 35.71 83.1673 36.2333C83.3486 36.7358 83.5521 37.2989 83.7778 37.9225C83.9997 38.5284 84.2145 39.1448 84.4223 39.7716C84.6442 40.3775 84.8534 40.9672 85.0498 41.5407C85.2642 42.1111 85.4525 42.6031 85.6149 43.0168Z" fill="white"/>
<path d="M98.1461 28.8765C99.6664 28.6121 100.849 28.7194 101.693 29.1987C102.533 29.6602 103.052 30.3526 103.249 31.2759C103.415 32.0572 103.291 32.6956 102.878 33.1911C102.482 33.6835 101.819 34.0106 100.889 34.1724C100.638 34.216 100.463 34.2189 100.362 34.1812C100.261 34.1435 100.196 34.0536 100.165 33.9115C100.131 33.7517 100.076 33.5773 99.9981 33.3882C99.9348 33.1782 99.8306 32.9938 99.6854 32.8349C99.5543 32.6551 99.3682 32.5218 99.1271 32.4348C98.9039 32.3448 98.6044 32.3324 98.2288 32.3978C97.728 32.4849 97.3521 32.6792 97.101 32.9807C96.8461 33.2644 96.7565 33.5838 96.8322 33.9389C96.9117 34.3118 97.1281 34.5872 97.4813 34.7652C97.8487 34.9222 98.2857 35.058 98.7924 35.1724C99.317 35.2837 99.8792 35.3976 100.479 35.5143C101.075 35.6131 101.642 35.7908 102.179 36.0472C102.734 36.3006 103.218 36.6583 103.632 37.1203C104.06 37.5615 104.359 38.1816 104.529 38.9806C104.802 40.2591 104.569 41.386 103.831 42.3615C103.093 43.337 101.811 43.9834 99.9869 44.3008C99.4861 44.3879 98.8953 44.4447 98.2146 44.471C97.5556 44.512 96.9139 44.5039 96.2896 44.4468C95.6615 44.3719 95.1114 44.2282 94.6395 44.0157C94.1854 43.8001 93.913 43.4792 93.8221 43.053C93.7881 42.8932 93.7733 42.6932 93.7777 42.4531C93.8001 42.2098 93.8511 41.9707 93.9309 41.7359C94.0286 41.4979 94.1517 41.2923 94.3003 41.1192C94.463 40.9251 94.6785 40.8048 94.9468 40.7581C95.1614 40.7208 95.3695 40.7398 95.5711 40.8152C95.7727 40.8906 96.003 40.9703 96.262 41.0541C96.5351 41.1171 96.8619 41.1707 97.2423 41.215C97.6228 41.2593 98.1081 41.2301 98.6984 41.1275C99.1455 41.0497 99.5277 40.9279 99.8448 40.7623C100.18 40.5935 100.308 40.3227 100.228 39.9498C100.156 39.6124 99.9563 39.371 99.6285 39.2255C99.2969 39.0622 98.8886 38.9306 98.4036 38.8309C97.9365 38.728 97.4228 38.624 96.8624 38.5189C96.3162 38.393 95.7835 38.2002 95.2645 37.9406C94.7633 37.678 94.3147 37.314 93.9188 36.8489C93.519 36.366 93.2302 35.7073 93.0523 34.8727C92.8593 33.9672 92.8754 33.1725 93.1007 32.4888C93.3401 31.7843 93.7043 31.1869 94.1934 30.6967C94.7004 30.2034 95.3035 29.813 96.0028 29.5256C96.6983 29.2205 97.4127 29.0041 98.1461 28.8765Z" fill="white"/>
<defs>
<filter id="filter0_d_59:95" x="0" y="0" width="192" height="32" filterUnits="userSpaceOnUse" color-interpolation-filters="sRGB">
<feFlood flood-opacity="0" result="BackgroundImageFix"/>
<feColorMatrix in="SourceAlpha" type="matrix" values="0 0 0 0 0 0 0 0 0 0 0 0 0 0 0 0 0 0 127 0" result="hardAlpha"/>
<feOffset dx="-1" dy="3"/>
<feComposite in2="hardAlpha" operator="out"/>
<feColorMatrix type="matrix" values="0 0 0 0 0.0510209 0 0 0 0 0.258333 0 0 0 0 0.0615177 0 0 0 1 0"/>
<feBlend mode="normal" in2="BackgroundImageFix" result="effect1_dropShadow_59:95"/>
<feBlend mode="normal" in="SourceGraphic" in2="effect1_dropShadow_59:95" result="shape"/>
</filter>
<filter id="filter1_i_59:95" x="2" y="40" width="189" height="32" filterUnits="userSpaceOnUse" color-interpolation-filters="sRGB">
<feFlood flood-opacity="0" result="BackgroundImageFix"/>
<feBlend mode="normal" in="SourceGraphic" in2="BackgroundImageFix" result="shape"/>
<feColorMatrix in="SourceAlpha" type="matrix" values="0 0 0 0 0 0 0 0 0 0 0 0 0 0 0 0 0 0 127 0" result="hardAlpha"/>
<feOffset dy="3"/>
<feComposite in2="hardAlpha" operator="arithmetic" k2="-1" k3="1"/>
<feColorMatrix type="matrix" values="0 0 0 0 0 0 0 0 0 0 0 0 0 0 0 0 0 0 0.25 0"/>
<feBlend mode="normal" in2="shape" result="effect1_innerShadow_59:95"/>
</filter>
</defs>
</svg>
