<svg width="141" height="67" viewBox="0 0 141 67" fill="none" xmlns="http://www.w3.org/2000/svg">
<path d="M 0.2 43 V 0.5 H 4.5 V 43 H 0.2 Z M 11 43 V 0.5 H 13.2 V 43 H 11 Z M 15.3 43 V 0.5 H 17.5 V 43 H 15.3 Z M 6.8 49.3 H 8.9 V 49.5 C 8.8 49.6 8.7 49.7 8.7 49.8 C 8.7 49.9 8.7 50.2 8.7 50.5 V 56.4 H 15.2 V 49.3 H 17.4 V 49.5 C 17.3 49.6 17.2 49.7 17.2 49.8 C 17.2 49.9 17.2 50.2 17.2 50.5 V 66 H 15.2 V 58 H 8.7 V 66 H 6.8 V 49.3 Z" fill="#a9a9a9"/>
<path d="M 24 43 V 0.5 H 26.1 V 43 H 24 Z M 32.6 43 V 0.5 H 39.1 V 43 H 32.6 Z M 41.2 43 V 0.5 H 45.6 V 43 H 41.2 Z M 35.8 66.3 C 33.9 66.3 32.5 65.5 31.5 64 C 30.4 62.5 29.9 60.4 29.9 57.7 C 29.9 55 30.4 53 31.5 51.4 C 32.5 49.9 34 49.2 35.8 49.2 C 37.7 49.2 39.2 49.9 40.2 51.4 C 41.3 53 41.8 55 41.8 57.7 C 41.8 60.4 41.3 62.5 40.2 64 C 39.2 65.5 37.8 66.3 35.8 66.3 Z M 35.8 64.6 C 37.1 64.6 38.1 64 38.8 62.9 C 39.5 61.7 39.9 59.9 39.9 57.7 C 39.9 55.6 39.5 53.9 38.8 52.6 C 38.1 51.4 37.1 50.8 35.8 50.8 C 34.6 50.8 33.6 51.4 32.9 52.6 C 32.2 53.9 31.8 55.6 31.8 57.7 C 31.8 59.9 32.2 61.7 32.8 62.9 C 33.5 64 34.6 64.6 35.8 64.6 Z" fill="#C0C0C0"/>
<path d="M 47.7 43 V 0.5 H 49.9 V 43 H 47.7 Z M 56.4 43 V 0.5 H 58.5 V 43 H 56.4 Z M 60.7 43 V 0.5 H 65 V 43 H 60.7 Z M 54.2 49.3 H 59 C 60.8 49.3 62.2 49.6 63.1 50.3 C 64 51.1 64.5 52.1 64.5 53.4 C 64.5 54.2 64.3 54.9 63.9 55.6 C 63.4 56.3 62.8 56.8 62 57 C 63 57.4 63.7 57.9 64.3 58.7 C 64.9 59.5 65.2 60.4 65.2 61.3 C 65.2 62.7 64.6 63.9 63.6 64.7 C 62.6 65.6 61 66 58.9 66 H 54.2 V 49.3 Z M 58.7 56.2 C 61.3 56.2 62.6 55.3 62.6 53.5 C 62.6 52.7 62.3 52.1 61.7 51.6 C 61.1 51.1 60.2 50.8 59 50.8 H 56 V 56.2 H 58.7 Z M 59.3 64.3 C 61.8 64.3 63.1 63.3 63.1 61.1 C 63.1 58.9 61.7 57.8 58.8 57.8 H 56 V 64.3 H 59.3 Z" fill="#D3D3D3"/>
<path d="M 71.5 43 V 0.5 H 73.7 V 43 H 71.5 Z M 75.8 43 V 0.5 H 78 V 43 H 75.8 Z M 84.5 43 V 0.5 H 88.8 V 43 H 84.5 Z M 86 61.1 H 80.6 L 79 66 H 77.1 L 83.2 49 H 83.5 L 89.6 66 H 87.7 L 86 61.1 Z M 85.5 59.6 L 83.4 53.3 L 81.1 59.6 H 85.5 Z" fill="white"/>
<path d="M 95.3 43 V 0.5 H 99.6 V 43 H 95.3 Z M 106.1 43 V 0.5 H 108.2 V 43 H 106.1 Z M 110.4 43 V 0.5 H 116.9 V 43 H 110.4 Z M 102 49.3 H 106.9 C 108.8 49.3 110.2 49.7 111 50.6 C 111.9 51.4 112.4 52.6 112.4 54.1 C 112.4 55 112.1 56 111.5 56.8 C 110.8 57.7 110 58.3 109 58.6 L 112.9 66 H 110.8 L 107.1 58.6 H 103.8 V 66 H 102 V 49.3 Z M 107.1 57 C 108.2 57 109.1 56.7 109.7 56.2 C 110.2 55.7 110.5 55 110.5 54.1 C 110.5 53.2 110.2 52.4 109.7 51.9 C 109.1 51.3 108.2 51.1 107.1 51.1 H 103.8 V 57 H 107.1 Z" fill="white"/>
<path d="M 119 43 V 0.5 H 123.4 V 43 H 119 Z M 125.5 43 V 0.5 H 132 V 43 H 125.5 Z M 138.5 43 V 0.5 H 140.6 V 43 H 138.5 Z M 129.8 50.9 H 125.1 V 49.3 H 136.6 V 50.9 H 131.7 V 66 H 129.8 V 50.9 Z" fill="white"/>
</svg>
