<svg width="141" height="67" viewBox="0 0 141 67" fill="none" xmlns="http://www.w3.org/2000/svg">
<path d="M0.203125 43V0.52002H4.52313V43H0.203125ZM11.0031 43V0.52002H13.1631V43H11.0031ZM15.3231 43V0.52002H17.4831V43H15.3231ZM6.75513 49.264H8.91513V49.48C8.81913 49.576 8.74713 49.696 8.69913 49.84C8.69913 49.936 8.69913 50.152 8.69913 50.488V56.392H15.1791V49.264H17.4111V49.48C17.3151 49.576 17.2431 49.696 17.1951 49.84C17.1951 49.936 17.1951 50.152 17.1951 50.488V65.968H15.1791V58.048H8.69913V65.968H6.75513V49.264Z" fill="white"/>
<path d="M23.9688 43V0.52002H26.1287V43H23.9688ZM32.6087 43V0.52002H39.0887V43H32.6087ZM41.2487 43V0.52002H45.5688V43H41.2487ZM35.8488 66.256C33.9288 66.256 32.4648 65.512 31.4568 64.024C30.4008 62.536 29.8727 60.424 29.8727 57.688C29.8727 55.048 30.4008 52.96 31.4568 51.424C32.5128 49.936 33.9768 49.192 35.8488 49.192C37.7208 49.192 39.1847 49.936 40.2407 51.424C41.2967 52.96 41.8247 55.048 41.8247 57.688C41.8247 60.424 41.2967 62.536 40.2407 64.024C39.2327 65.512 37.7688 66.256 35.8488 66.256ZM35.8488 64.6C37.1448 64.6 38.1288 64.024 38.8008 62.872C39.5208 61.672 39.8808 59.944 39.8808 57.688C39.8808 55.576 39.5208 53.896 38.8008 52.648C38.0808 51.448 37.0968 50.848 35.8488 50.848C34.6008 50.848 33.6168 51.448 32.8968 52.648C32.1768 53.896 31.8167 55.576 31.8167 57.688C31.8167 59.944 32.1527 61.672 32.8247 62.872C33.5447 64.024 34.5528 64.6 35.8488 64.6Z" fill="white"/>
<path d="M47.7344 43V0.52002H49.8944V43H47.7344ZM56.3744 43V0.52002H58.5344V43H56.3744ZM60.6944 43V0.52002H65.0144V43H60.6944ZM54.2144 49.264H58.9664C60.7904 49.264 62.1584 49.624 63.0704 50.344C64.0304 51.064 64.5104 52.072 64.5104 53.368C64.5104 54.184 64.2944 54.928 63.8624 55.6C63.3824 56.272 62.7584 56.752 61.9904 57.04C62.9504 57.376 63.7184 57.928 64.2944 58.696C64.8704 59.512 65.1584 60.376 65.1584 61.288C65.1584 62.728 64.6304 63.88 63.5744 64.744C62.5664 65.56 61.0064 65.968 58.8944 65.968H54.2144V49.264ZM58.6784 56.176C61.3184 56.176 62.6384 55.288 62.6384 53.512C62.6384 52.744 62.3264 52.12 61.7024 51.64C61.1264 51.112 60.2144 50.848 58.9664 50.848H56.0144V56.176H58.6784ZM59.2544 64.312C61.8464 64.312 63.1424 63.256 63.1424 61.144C63.1424 58.888 61.6784 57.76 58.7504 57.76H56.0144V64.312H59.2544Z" fill="white"/>
<path d="M71.5 43V0.52002H73.66V43H71.5ZM75.82 43V0.52002H77.98V43H75.82ZM84.46 43V0.52002H88.78V43H84.46ZM86.044 61.072H80.644L78.988 65.968H77.116L83.236 48.976H83.452L89.644 65.968H87.7L86.044 61.072ZM85.54 59.632L83.38 53.296L81.148 59.632H85.54Z" fill="white"/>
<path d="M95.2656 43V0.52002H99.5856V43H95.2656ZM106.066 43V0.52002H108.226V43H106.066ZM110.386 43V0.52002H116.866V43H110.386ZM101.962 49.264H106.858C108.778 49.264 110.17 49.696 111.034 50.56C111.946 51.376 112.402 52.552 112.402 54.088C112.402 55.048 112.09 55.96 111.466 56.824C110.842 57.688 110.026 58.264 109.018 58.552L112.906 65.968H110.818L107.074 58.624H103.834V65.968H101.962V49.264ZM107.074 56.968C108.226 56.968 109.09 56.704 109.666 56.176C110.194 55.696 110.458 55 110.458 54.088C110.458 53.176 110.194 52.432 109.666 51.856C109.09 51.328 108.226 51.064 107.074 51.064H103.834V56.968H107.074Z" fill="white"/>
<path d="M119.031 43V0.52002H123.351V43H119.031ZM125.511 43V0.52002H131.991V43H125.511ZM138.471 43V0.52002H140.631V43H138.471ZM129.759 50.92H125.079V49.264H136.599V50.92H131.703V65.968H129.759V50.92Z" fill="white"/>
</svg>
