<svg width="1190" height="20" viewBox="0 0 1190 20" fill="none" xmlns="http://www.w3.org/2000/svg">
<path d="M0 0H1190V20H0V0Z" fill="#004643"/>
<path d="M35 0H70L60 20H25L35 0Z" fill="#FF8A00"/>
<path d="M105 0H140L130 20H95L105 0Z" fill="#FF8A00"/>
<path d="M175 0H210L200 20H165L175 0Z" fill="#FF8A00"/>
<path d="M245 0H280L270 20H235L245 0Z" fill="#FF8A00"/>
<path d="M315 0H350L340 20H305L315 0Z" fill="#FF8A00"/>
<path d="M385 0H420L410 20H375L385 0Z" fill="#FF8A00"/>
<path d="M455 0H490L480 20H445L455 0Z" fill="#FF8A00"/>
<path d="M525 0H560L550 20H515L525 0Z" fill="#FF8A00"/>
<path d="M595 0H630L620 20H585L595 0Z" fill="#FF8A00"/>
<path d="M665 0H700L690 20H655L665 0Z" fill="#FF8A00"/>
<path d="M735 0H770L760 20H725L735 0Z" fill="#FF8A00"/>
<path d="M805 0H840L830 20H795L805 0Z" fill="#FF8A00"/>
<path d="M875 0H910L900 20H865L875 0Z" fill="#FF8A00"/>
<path d="M945 0H980L970 20H935L945 0Z" fill="#FF8A00"/>
<path d="M1015 0H1050L1040 20H1005L1015 0Z" fill="#FF8A00"/>
<path d="M1085 0H1120L1110 20H1075L1085 0Z" fill="#FF8A00"/>
<path d="M1155 0H1190L1180 20H1145L1155 0Z" fill="#FF8A00"/>
</svg>
