<svg width="25" height="20" viewBox="0 0 25 20" fill="none" xmlns="http://www.w3.org/2000/svg">
<path d="M9.99997 2.10526C5.63983 2.10526 2.10523 5.63986 2.10523 10C2.10523 14.3601 5.63983 17.8947 9.99997 17.8947C11.8993 17.8947 13.642 17.224 15.0041 16.1065C15.4611 15.7316 16.1379 15.7093 16.5599 16.1232C16.9673 16.5228 16.9842 17.1795 16.5533 17.5536C14.7982 19.0776 12.5068 20 9.99997 20C4.47712 20 -3.05176e-05 15.5228 -3.05176e-05 10C-3.05176e-05 4.47715 4.47712 0 9.99997 0C12.5068 0 14.7982 0.922435 16.5533 2.4464C16.9842 2.82053 16.9673 3.47723 16.5599 3.87681C16.1379 4.29074 15.4611 4.26842 15.0041 3.89349C13.642 2.77598 11.8993 2.10526 9.99997 2.10526Z" fill="white"/>
<path fill-rule="evenodd" clip-rule="evenodd" d="M18.2929 5.29289C18.6834 4.90237 19.3166 4.90237 19.7071 5.29289L24.4142 10L19.7071 14.7071C19.3166 15.0976 18.6834 15.0976 18.2929 14.7071C17.9023 14.3166 17.9023 13.6834 18.2929 13.2929L20.5858 11H7.49997C6.94768 11 6.49997 10.5523 6.49997 10C6.49997 9.44772 6.94768 9 7.49997 9H20.5858L18.2929 6.70711C17.9023 6.31658 17.9023 5.68342 18.2929 5.29289Z" fill="white"/>
</svg>
